<svg version="1.0" xmlns="http://www.w3.org/2000/svg"
 width="1030.000000pt" height="1008.000000pt" viewBox="0 0 1030.000000 1008.000000"
 preserveAspectRatio="xMidYMid meet">

<g transform="translate(0.000000,1008.000000) scale(0.100000,-0.100000)"
fill="#000000" stroke="none">
<path d="M400 5085 l0 -4435 220 0 220 0 2 4027 3 4026 1436 -1809 c789 -995
1439 -1815 1443 -1822 4 -7 -4 -47 -18 -90 -57 -172 -115 -478 -136 -712 -17
-179 -8 -662 14 -820 86 -603 302 -1146 650 -1625 240 -332 574 -642 910 -844
301 -182 547 -288 836 -361 266 -67 456 -90 745 -90 284 0 507 26 767 91 64
16 132 29 151 29 19 0 37 6 40 13 2 7 31 21 63 31 158 49 413 167 585 272 355
214 688 540 886 867 67 110 136 258 126 267 -9 7 -375 102 -378 98 -2 -2 -21
-40 -44 -85 -193 -387 -557 -723 -1037 -959 -94 -46 -179 -84 -188 -84 -15 0
-16 103 -14 1312 l3 1313 1067 3 1066 2 7 52 c17 123 -13 558 -56 798 -119
674 -442 1289 -937 1788 -302 303 -621 520 -1017 692 l-130 57 -3 1216 -2
1217 -215 0 -215 0 0 -1160 c0 -644 -4 -1160 -9 -1160 -4 0 -30 4 -57 9 -309
59 -792 51 -1129 -19 -291 -60 -619 -184 -862 -326 -495 -289 -922 -727 -1214
-1242 -50 -89 -53 -92 -70 -75 -9 10 -722 907 -1584 1993 l-1567 1975 -179 3
-179 2 0 -4435z m6595 1771 c66 -8 150 -20 188 -27 l67 -12 0 -1379 0 -1378
-1078 0 -1079 0 -20 23 c-71 77 -843 1061 -843 1074 0 27 132 291 209 418 327
538 817 951 1366 1150 185 67 347 105 550 130 141 18 494 18 640 1z m945 -301
c225 -128 429 -286 620 -481 473 -485 754 -1112 829 -1853 6 -57 11 -116 11
-132 l0 -29 -857 2 -858 3 -3 1295 c-1 712 0 1301 3 1307 5 15 123 -37 255
-112z m-3643 -2200 c120 -152 220 -280 221 -285 2 -6 -97 -10 -268 -10 l-272
0 7 78 c19 219 69 507 85 497 5 -3 107 -129 227 -280z m1627 -2051 c610 -767
1105 -1398 1102 -1402 -13 -12 -411 -14 -530 -2 -323 33 -625 124 -916 276
-569 298 -1046 819 -1320 1444 -124 281 -218 633 -250 930 -6 58 -13 115 -16
128 l-4 22 413 0 413 0 1108 -1396z m1326 214 c0 -650 -2 -1179 -3 -1177 -31
36 -1855 2338 -1861 2347 -6 9 183 12 928 12 l936 0 0 -1182z"/>
</g>
</svg>
